<svg width="484" height="173" viewBox="0 0 484 173" fill="none" xmlns="http://www.w3.org/2000/svg">
<path d="M157.756 54.0335C161.068 46.2589 168.842 40.356 178.92 40.356C195.333 40.356 201.092 51.7299 201.092 65.9832V105H189.142V66.9911C189.142 56.481 184.823 49.8582 175.177 49.8582C166.251 49.8582 159.052 57.3448 159.052 68.8627V105H147.102V66.9911C147.102 56.481 142.783 49.8582 133.137 49.8582C124.211 49.8582 117.156 57.3448 117.156 68.8627V105H105.206V42.0837H117.156V53.3136C120.179 45.683 127.522 40.356 137.168 40.356C148.398 40.356 155.021 45.827 157.756 54.0335Z" fill="white"/>
<path d="M225.048 73.6138C225.048 87.5792 232.103 97.5134 244.772 97.5134C257.586 97.5134 264.785 87.5792 264.785 73.6138C264.785 59.5044 257.586 49.7143 244.772 49.7143C232.103 49.7143 225.048 59.5044 225.048 73.6138ZM277.022 73.6138C277.022 93.1942 263.345 106.728 244.772 106.728C226.344 106.728 212.81 93.1942 212.81 73.6138C212.81 54.0335 226.344 40.356 244.772 40.356C263.345 40.356 277.022 54.0335 277.022 73.6138Z" fill="white"/>
<path d="M301.052 71.7422V75.3415C301.052 89.1629 309.835 97.2254 321.209 97.2254C333.59 97.2254 340.357 88.0111 340.357 73.6138C340.357 59.2165 333.59 50.0022 321.209 50.0022C309.835 50.0022 301.052 58.0647 301.052 71.7422ZM301.052 91.8984L298.461 105H289.39V14.2969H301.34V55.3292C304.076 47.5547 312.138 40.356 323.944 40.356C342.517 40.356 352.739 55.0413 352.739 73.6138C352.739 92.1864 342.517 106.728 323.8 106.728C312.138 106.728 303.932 99.8169 301.052 91.8984Z" fill="white"/>
<path d="M365.173 42.0837H377.123V105H365.173V42.0837ZM364.885 27.8304V14.2969H377.267V27.8304H364.885Z" fill="white"/>
<path d="M393.434 14.2969H405.383V105H393.434V14.2969Z" fill="white"/>
<path d="M469.493 82.6841L479.427 83.8359C476.26 98.0893 465.75 106.728 450.057 106.728C431.34 106.728 417.663 94.058 417.663 74.4777C417.663 54.6094 431.34 40.356 449.481 40.356C469.493 40.356 479.715 54.6094 479.715 71.7422V76.4933H429.612C430.188 88.731 438.971 97.3694 450.201 97.3694C460.711 97.3694 466.901 92.3303 469.493 82.6841ZM429.9 68.7187H467.477C467.045 58.6406 461.43 49.4263 449.481 49.4263C438.107 49.4263 431.34 58.3527 429.9 68.7187Z" fill="white"/>
<path d="M117.384 128.376C117.384 129.176 117.144 129.8 116.664 130.248C116.184 130.696 115.568 131 114.816 131.16V131.256C115.616 131.368 116.312 131.656 116.904 132.12C117.496 132.568 117.792 133.272 117.792 134.232C117.792 134.776 117.688 135.28 117.48 135.744C117.288 136.208 116.984 136.608 116.568 136.944C116.152 137.28 115.616 137.544 114.96 137.736C114.304 137.912 113.512 138 112.584 138H107.04V125.136H112.56C113.472 125.136 114.288 125.24 115.008 125.448C115.744 125.64 116.32 125.976 116.736 126.456C117.168 126.92 117.384 127.56 117.384 128.376ZM115.608 134.232C115.608 133.496 115.328 132.968 114.768 132.648C114.208 132.328 113.384 132.168 112.296 132.168H109.152V136.296H112.344C113.4 136.296 114.208 136.144 114.768 135.84C115.328 135.52 115.608 134.984 115.608 134.232ZM115.248 128.64C115.248 128.032 115.024 127.592 114.576 127.32C114.144 127.032 113.432 126.888 112.44 126.888H109.152V130.416H112.056C113.096 130.416 113.888 130.272 114.432 129.984C114.976 129.696 115.248 129.248 115.248 128.64Z" fill="#F33232"/>
<path d="M129.628 138.24C128.492 138.24 127.476 138.008 126.58 137.544C125.7 137.08 125.004 136.36 124.492 135.384C123.996 134.408 123.748 133.16 123.748 131.64C123.748 130.056 124.012 128.768 124.54 127.776C125.068 126.784 125.78 126.056 126.676 125.592C127.588 125.128 128.62 124.896 129.772 124.896C130.428 124.896 131.06 124.968 131.668 125.112C132.276 125.24 132.772 125.4 133.156 125.592L132.508 127.344C132.124 127.2 131.676 127.064 131.164 126.936C130.652 126.808 130.172 126.744 129.724 126.744C128.86 126.744 128.148 126.928 127.588 127.296C127.028 127.664 126.612 128.208 126.34 128.928C126.068 129.648 125.932 130.544 125.932 131.616C125.932 132.64 126.068 133.512 126.34 134.232C126.612 134.952 127.02 135.496 127.564 135.864C128.108 136.232 128.788 136.416 129.604 136.416C130.308 136.416 130.924 136.344 131.452 136.2C131.996 136.056 132.492 135.88 132.94 135.672V137.544C132.508 137.768 132.028 137.936 131.5 138.048C130.988 138.176 130.364 138.24 129.628 138.24Z" fill="#F33232"/>
<path d="M144.567 124.896C145.671 124.896 146.615 125.136 147.399 125.616C148.199 126.096 148.807 126.776 149.223 127.656C149.655 128.52 149.871 129.536 149.871 130.704V131.976H141.063C141.095 133.432 141.463 134.544 142.167 135.312C142.887 136.064 143.887 136.44 145.167 136.44C145.983 136.44 146.703 136.368 147.327 136.224C147.967 136.064 148.623 135.84 149.295 135.552V137.4C148.639 137.688 147.991 137.896 147.351 138.024C146.711 138.168 145.951 138.24 145.071 138.24C143.855 138.24 142.775 137.992 141.831 137.496C140.903 137 140.175 136.264 139.647 135.288C139.135 134.296 138.879 133.088 138.879 131.664C138.879 130.256 139.111 129.048 139.575 128.04C140.055 127.032 140.719 126.256 141.567 125.712C142.431 125.168 143.431 124.896 144.567 124.896ZM144.543 126.624C143.535 126.624 142.735 126.952 142.143 127.608C141.567 128.248 141.223 129.144 141.111 130.296H147.663C147.663 129.56 147.551 128.92 147.327 128.376C147.103 127.832 146.759 127.408 146.295 127.104C145.847 126.784 145.263 126.624 144.543 126.624Z" fill="#F33232"/>
<path d="M174.211 125.136V136.224H176.083V142.464H174.043V138H165.091V142.464H163.075V136.224H164.107C164.843 135.2 165.451 134.088 165.931 132.888C166.427 131.672 166.795 130.408 167.035 129.096C167.291 127.768 167.427 126.448 167.443 125.136H174.211ZM169.315 126.792C169.251 127.88 169.083 129.008 168.811 130.176C168.539 131.328 168.187 132.432 167.755 133.488C167.339 134.544 166.851 135.456 166.291 136.224H172.171V126.792H169.315Z" fill="#F33232"/>
<path d="M191.996 138H189.86V126.888H186.068C185.908 128.92 185.708 130.656 185.468 132.096C185.228 133.52 184.924 134.68 184.556 135.576C184.188 136.472 183.748 137.128 183.236 137.544C182.724 137.96 182.124 138.168 181.436 138.168C181.228 138.168 181.02 138.152 180.812 138.12C180.62 138.104 180.46 138.064 180.332 138V136.416C180.428 136.448 180.532 136.472 180.644 136.488C180.756 136.504 180.868 136.512 180.98 136.512C181.332 136.512 181.652 136.368 181.94 136.08C182.228 135.792 182.484 135.352 182.708 134.76C182.948 134.168 183.164 133.424 183.356 132.528C183.548 131.616 183.716 130.544 183.86 129.312C184.004 128.08 184.132 126.688 184.244 125.136H191.996V138Z" fill="#F33232"/>
<path d="M200.471 138H198.023L201.695 132.6C201.199 132.472 200.719 132.272 200.255 132C199.791 131.712 199.415 131.32 199.127 130.824C198.839 130.312 198.695 129.68 198.695 128.928C198.695 127.696 199.111 126.76 199.943 126.12C200.775 125.464 201.879 125.136 203.255 125.136H209.015V138H206.903V132.888H203.783L200.471 138ZM200.735 128.952C200.735 129.688 201.007 130.24 201.551 130.608C202.111 130.96 202.887 131.136 203.879 131.136H206.903V126.888H203.471C202.495 126.888 201.791 127.08 201.359 127.464C200.943 127.848 200.735 128.344 200.735 128.952Z" fill="#F33232"/>
<path d="M234.942 128.376C234.942 129.176 234.702 129.8 234.222 130.248C233.742 130.696 233.126 131 232.374 131.16V131.256C233.174 131.368 233.87 131.656 234.462 132.12C235.054 132.568 235.35 133.272 235.35 134.232C235.35 134.776 235.246 135.28 235.038 135.744C234.846 136.208 234.542 136.608 234.126 136.944C233.71 137.28 233.174 137.544 232.518 137.736C231.862 137.912 231.07 138 230.142 138H224.598V125.136H230.118C231.03 125.136 231.846 125.24 232.566 125.448C233.302 125.64 233.878 125.976 234.294 126.456C234.726 126.92 234.942 127.56 234.942 128.376ZM233.166 134.232C233.166 133.496 232.886 132.968 232.326 132.648C231.766 132.328 230.942 132.168 229.854 132.168H226.71V136.296H229.902C230.958 136.296 231.766 136.144 232.326 135.84C232.886 135.52 233.166 134.984 233.166 134.232ZM232.806 128.64C232.806 128.032 232.582 127.592 232.134 127.32C231.702 127.032 230.99 126.888 229.998 126.888H226.71V130.416H229.614C230.654 130.416 231.446 130.272 231.99 129.984C232.534 129.696 232.806 129.248 232.806 128.64Z" fill="#F33232"/>
<path d="M246.898 124.92C248.466 124.92 249.626 125.264 250.378 125.952C251.13 126.64 251.506 127.736 251.506 129.24V138H249.97L249.562 136.176H249.466C249.098 136.64 248.714 137.032 248.314 137.352C247.93 137.656 247.482 137.88 246.97 138.024C246.474 138.168 245.866 138.24 245.146 138.24C244.378 138.24 243.682 138.104 243.058 137.832C242.45 137.56 241.97 137.144 241.618 136.584C241.266 136.008 241.09 135.288 241.09 134.424C241.09 133.144 241.594 132.16 242.602 131.472C243.61 130.768 245.162 130.384 247.258 130.32L249.442 130.248V129.48C249.442 128.408 249.21 127.664 248.746 127.248C248.282 126.832 247.626 126.624 246.778 126.624C246.106 126.624 245.466 126.728 244.858 126.936C244.25 127.128 243.682 127.352 243.154 127.608L242.506 126.024C243.066 125.72 243.73 125.464 244.498 125.256C245.266 125.032 246.066 124.92 246.898 124.92ZM247.522 131.784C245.922 131.848 244.81 132.104 244.186 132.552C243.578 133 243.274 133.632 243.274 134.448C243.274 135.168 243.49 135.696 243.922 136.032C244.37 136.368 244.938 136.536 245.626 136.536C246.714 136.536 247.618 136.24 248.338 135.648C249.058 135.04 249.418 134.112 249.418 132.864V131.712L247.522 131.784Z" fill="#F33232"/>
<path d="M276.527 125.136V138H259.079V125.136H261.191V136.224H266.735V125.136H268.847V136.224H274.415V125.136H276.527Z" fill="#F33232"/>
<path d="M289.21 124.896C290.314 124.896 291.258 125.136 292.042 125.616C292.842 126.096 293.45 126.776 293.866 127.656C294.298 128.52 294.514 129.536 294.514 130.704V131.976H285.706C285.738 133.432 286.106 134.544 286.81 135.312C287.53 136.064 288.53 136.44 289.81 136.44C290.626 136.44 291.346 136.368 291.97 136.224C292.61 136.064 293.266 135.84 293.938 135.552V137.4C293.282 137.688 292.634 137.896 291.994 138.024C291.354 138.168 290.594 138.24 289.714 138.24C288.498 138.24 287.418 137.992 286.474 137.496C285.546 137 284.818 136.264 284.29 135.288C283.778 134.296 283.522 133.088 283.522 131.664C283.522 130.256 283.754 129.048 284.218 128.04C284.698 127.032 285.362 126.256 286.21 125.712C287.074 125.168 288.074 124.896 289.21 124.896ZM289.186 126.624C288.178 126.624 287.378 126.952 286.786 127.608C286.21 128.248 285.866 129.144 285.754 130.296H292.306C292.306 129.56 292.194 128.92 291.97 128.376C291.746 127.832 291.402 127.408 290.938 127.104C290.49 126.784 289.906 126.624 289.186 126.624Z" fill="#F33232"/>
<path d="M309.236 125.136V126.912H303.5V138H301.388V125.136H309.236Z" fill="#F33232"/>
<path d="M326.321 131.544C326.321 132.616 326.177 133.568 325.889 134.4C325.617 135.216 325.217 135.912 324.689 136.488C324.177 137.064 323.545 137.504 322.793 137.808C322.057 138.096 321.233 138.24 320.321 138.24C319.473 138.24 318.689 138.096 317.969 137.808C317.249 137.504 316.625 137.064 316.097 136.488C315.569 135.912 315.153 135.216 314.849 134.4C314.561 133.568 314.417 132.616 314.417 131.544C314.417 130.12 314.657 128.92 315.137 127.944C315.617 126.952 316.305 126.2 317.201 125.688C318.097 125.16 319.161 124.896 320.393 124.896C321.561 124.896 322.585 125.16 323.465 125.688C324.361 126.2 325.057 126.952 325.553 127.944C326.065 128.92 326.321 130.12 326.321 131.544ZM316.601 131.544C316.601 132.552 316.729 133.432 316.985 134.184C317.257 134.92 317.673 135.488 318.233 135.888C318.793 136.288 319.505 136.488 320.369 136.488C321.233 136.488 321.945 136.288 322.505 135.888C323.065 135.488 323.473 134.92 323.729 134.184C324.001 133.432 324.137 132.552 324.137 131.544C324.137 130.52 324.001 129.648 323.729 128.928C323.457 128.208 323.041 127.656 322.481 127.272C321.937 126.872 321.225 126.672 320.345 126.672C319.033 126.672 318.081 127.104 317.489 127.968C316.897 128.832 316.601 130.024 316.601 131.544Z" fill="#F33232"/>
<path d="M350.061 126.912H345.861V138H343.773V126.912H339.621V125.136H350.061V126.912Z" fill="#F33232"/>
<path d="M360.928 124.896C362.032 124.896 362.976 125.136 363.76 125.616C364.56 126.096 365.168 126.776 365.584 127.656C366.016 128.52 366.232 129.536 366.232 130.704V131.976H357.424C357.456 133.432 357.824 134.544 358.528 135.312C359.248 136.064 360.248 136.44 361.528 136.44C362.344 136.44 363.064 136.368 363.688 136.224C364.328 136.064 364.984 135.84 365.656 135.552V137.4C365 137.688 364.352 137.896 363.712 138.024C363.072 138.168 362.312 138.24 361.432 138.24C360.216 138.24 359.136 137.992 358.192 137.496C357.264 137 356.536 136.264 356.008 135.288C355.496 134.296 355.24 133.088 355.24 131.664C355.24 130.256 355.472 129.048 355.936 128.04C356.416 127.032 357.08 126.256 357.928 125.712C358.792 125.168 359.792 124.896 360.928 124.896ZM360.904 126.624C359.896 126.624 359.096 126.952 358.504 127.608C357.928 128.248 357.584 129.144 357.472 130.296H364.024C364.024 129.56 363.912 128.92 363.688 128.376C363.464 127.832 363.12 127.408 362.656 127.104C362.208 126.784 361.624 126.624 360.904 126.624Z" fill="#F33232"/>
<path d="M382.899 138H380.763V126.888H376.971C376.811 128.92 376.611 130.656 376.371 132.096C376.131 133.52 375.827 134.68 375.459 135.576C375.091 136.472 374.651 137.128 374.139 137.544C373.627 137.96 373.027 138.168 372.339 138.168C372.131 138.168 371.923 138.152 371.715 138.12C371.523 138.104 371.363 138.064 371.235 138V136.416C371.331 136.448 371.435 136.472 371.547 136.488C371.659 136.504 371.771 136.512 371.883 136.512C372.235 136.512 372.555 136.368 372.843 136.08C373.131 135.792 373.387 135.352 373.611 134.76C373.851 134.168 374.067 133.424 374.259 132.528C374.451 131.616 374.619 130.544 374.763 129.312C374.907 128.08 375.035 126.688 375.147 125.136H382.899V138Z" fill="#F33232"/>
<path d="M395.55 124.896C396.654 124.896 397.598 125.136 398.382 125.616C399.182 126.096 399.79 126.776 400.206 127.656C400.638 128.52 400.854 129.536 400.854 130.704V131.976H392.046C392.078 133.432 392.446 134.544 393.15 135.312C393.87 136.064 394.87 136.44 396.15 136.44C396.966 136.44 397.686 136.368 398.31 136.224C398.95 136.064 399.606 135.84 400.278 135.552V137.4C399.622 137.688 398.974 137.896 398.334 138.024C397.694 138.168 396.934 138.24 396.054 138.24C394.838 138.24 393.758 137.992 392.814 137.496C391.886 137 391.158 136.264 390.63 135.288C390.118 134.296 389.862 133.088 389.862 131.664C389.862 130.256 390.094 129.048 390.558 128.04C391.038 127.032 391.702 126.256 392.55 125.712C393.414 125.168 394.414 124.896 395.55 124.896ZM395.526 126.624C394.518 126.624 393.718 126.952 393.126 127.608C392.55 128.248 392.206 129.144 392.094 130.296H398.646C398.646 129.56 398.534 128.92 398.31 128.376C398.086 127.832 397.742 127.408 397.278 127.104C396.83 126.784 396.246 126.624 395.526 126.624Z" fill="#F33232"/>
<path d="M415.409 124.944C416.689 125.056 417.801 125.392 418.745 125.952C419.705 126.512 420.449 127.264 420.977 128.208C421.505 129.152 421.769 130.272 421.769 131.568C421.769 132.864 421.513 133.992 421.001 134.952C420.489 135.896 419.761 136.648 418.817 137.208C417.873 137.752 416.737 138.08 415.409 138.192V143.76H413.345V138.192C412.081 138.08 410.969 137.752 410.009 137.208C409.049 136.648 408.305 135.896 407.777 134.952C407.249 133.992 406.985 132.864 406.985 131.568C406.985 130.256 407.241 129.128 407.753 128.184C408.265 127.224 409.001 126.472 409.961 125.928C410.921 125.368 412.073 125.04 413.417 124.944V119.76H415.409V124.944ZM413.417 126.696C412.441 126.792 411.641 127.04 411.017 127.44C410.393 127.84 409.929 128.384 409.625 129.072C409.337 129.76 409.193 130.592 409.193 131.568C409.193 132.528 409.337 133.36 409.625 134.064C409.929 134.752 410.393 135.304 411.017 135.72C411.641 136.12 412.441 136.368 413.417 136.464V126.696ZM415.409 136.464C416.369 136.352 417.153 136.096 417.761 135.696C418.385 135.296 418.841 134.752 419.129 134.064C419.433 133.36 419.585 132.528 419.585 131.568C419.585 130.608 419.433 129.784 419.129 129.096C418.825 128.408 418.361 127.864 417.737 127.464C417.129 127.064 416.353 126.816 415.409 126.72V136.464Z" fill="#F33232"/>
<path d="M439.904 131.544C439.904 132.616 439.76 133.568 439.472 134.4C439.2 135.216 438.8 135.912 438.272 136.488C437.76 137.064 437.128 137.504 436.376 137.808C435.64 138.096 434.816 138.24 433.904 138.24C433.056 138.24 432.272 138.096 431.552 137.808C430.832 137.504 430.208 137.064 429.68 136.488C429.152 135.912 428.736 135.216 428.432 134.4C428.144 133.568 428 132.616 428 131.544C428 130.12 428.24 128.92 428.72 127.944C429.2 126.952 429.888 126.2 430.784 125.688C431.68 125.16 432.744 124.896 433.976 124.896C435.144 124.896 436.168 125.16 437.048 125.688C437.944 126.2 438.64 126.952 439.136 127.944C439.648 128.92 439.904 130.12 439.904 131.544ZM430.184 131.544C430.184 132.552 430.312 133.432 430.568 134.184C430.84 134.92 431.256 135.488 431.816 135.888C432.376 136.288 433.088 136.488 433.952 136.488C434.816 136.488 435.528 136.288 436.088 135.888C436.648 135.488 437.056 134.92 437.312 134.184C437.584 133.432 437.72 132.552 437.72 131.544C437.72 130.52 437.584 129.648 437.312 128.928C437.04 128.208 436.624 127.656 436.064 127.272C435.52 126.872 434.808 126.672 433.928 126.672C432.616 126.672 431.664 127.104 431.072 127.968C430.48 128.832 430.184 130.024 430.184 131.544Z" fill="#F33232"/>
<path d="M448.963 125.136V130.488H455.947V125.136H458.059V138H455.947V132.264H448.963V138H446.851V125.136H448.963Z" fill="#F33232"/>
<path d="M470.604 124.92C472.172 124.92 473.332 125.264 474.084 125.952C474.836 126.64 475.212 127.736 475.212 129.24V138H473.676L473.268 136.176H473.172C472.804 136.64 472.42 137.032 472.02 137.352C471.636 137.656 471.188 137.88 470.676 138.024C470.18 138.168 469.572 138.24 468.852 138.24C468.084 138.24 467.388 138.104 466.764 137.832C466.156 137.56 465.676 137.144 465.324 136.584C464.972 136.008 464.796 135.288 464.796 134.424C464.796 133.144 465.3 132.16 466.308 131.472C467.316 130.768 468.868 130.384 470.964 130.32L473.148 130.248V129.48C473.148 128.408 472.916 127.664 472.452 127.248C471.988 126.832 471.332 126.624 470.484 126.624C469.812 126.624 469.172 126.728 468.564 126.936C467.956 127.128 467.388 127.352 466.86 127.608L466.212 126.024C466.772 125.72 467.436 125.464 468.204 125.256C468.972 125.032 469.772 124.92 470.604 124.92ZM471.228 131.784C469.628 131.848 468.516 132.104 467.892 132.552C467.284 133 466.98 133.632 466.98 134.448C466.98 135.168 467.196 135.696 467.628 136.032C468.076 136.368 468.644 136.536 469.332 136.536C470.42 136.536 471.324 136.24 472.044 135.648C472.764 135.04 473.124 134.112 473.124 132.864V131.712L471.228 131.784Z" fill="#F33232"/>
<path d="M0.142598 129.113L63 42L76.72 42.0007V118.63H64.72V60.4962L16.762 126.635H64.72V126.63H76.72V126.635H92V138.635H80V138.63H61V138.635H0L0.142598 129.113Z" fill="#D90000"/>
<path d="M64.72 146.63V162.001H76.72V146.63H64.72Z" fill="#D90000"/>
</svg>
